#!OML:ASF X:\für Bonn\!DataBase\2005_08_12_Daniel\c3d\Daniel.ASF
:FULLY-SPECIFIED
:DEGREES
785
root 4.78996 17.1381 13.9148 -358.304 36.142 364.195
lowerback 5.92746 -4.37705 -8.32639
upperback 1.89401 -6.29535 -1.74652
thorax -0.645697 -3.15076 3.18633
lowerneck 1.4657 2.70798 -4.63716
upperneck 15.0256 4.22007 -2.48956
head 4.69047 1.74676 0.119437
rclavicle 3.68249e-014 3.97569e-014
rhumerus -39.7167 -29.0724 -70.4763
rradius 13.1631
rwrist 43.9345
rhand -15.0623 18.1769
rfingers 7.12502
rthumb 11.1046 -11.5093
lclavicle 3.68249e-014 3.97569e-014
lhumerus -19.8791 -7.0091 92.4457
lradius 48.4442
lwrist -4.27847
lhand -13.2084 -8.67908
lfingers 7.12502
lthumb 12.8923 20.9027
rfemur -36.7804 29.9502 -1.23379
rtibia 28.8264
rfoot -38.8409 -27.3554
rtoes -19.4995
lfemur 21.9343 -11.8288 -35.6159
ltibia 10.3118
lfoot -20.5609 -10.3255
ltoes 3.76909
786
root 4.86143 17.0965 14.094 -358.146 36.2976 364.422
lowerback 5.99842 -4.38618 -8.43543
upperback 1.87595 -6.32189 -1.7633
thorax -0.690748 -3.16157 3.23657
lowerneck 1.21738 2.73898 -4.81564
upperneck 15.1574 4.27425 -2.36195
head 4.78158 1.76349 0.20121
rclavicle -6.11263e-015 7.15625e-015
rhumerus -39.8691 -30.3247 -69.4319
rradius 12.9472
rwrist 45.3728
rhand -15.1904 18.3055
rfingers 7.12502
rthumb 10.9811 -11.3873
lclavicle -6.11263e-015 7.15625e-015
lhumerus -19.5218 -6.81938 92.2895
lradius 48.3453
lwrist -4.4908
lhand -13.2335 -8.96591
lfingers 7.12502
lthumb 12.8681 20.6174
rfemur -37.0552 28.6479 -0.776786
rtibia 28.8116
rfoot -38.574 -26.332
rtoes -17.2636
lfemur 23.2308 -11.5598 -35.601
ltibia 9.11651
lfoot -20.305 -10.8016
ltoes 3.9242
787
root 4.93557 17.053 14.2726 -358.035 36.4109 364.509
lowerback 6.03282 -4.37766 -8.34535
upperback 1.84503 -6.31147 -1.77637
thorax -0.754849 -3.15277 3.17912
lowerneck 0.960028 2.76053 -4.97319
upperneck 15.3071 4.31742 -2.2337
head 4.8821 1.77549 0.280033
rclavicle 6.37602e-014 8.74653e-015
rhumerus -40.0595 -31.6498 -68.3684
rradius 12.727
rwrist 46.6092
rhand -15.2969 18.2907
rfingers 7.12502
rthumb 10.8784 -11.4076
lclavicle 6.37602e-014 8.74653e-015
lhumerus -19.2051 -6.70573 92.1195
lradius 48.1037
lwrist -4.50237
lhand -13.2147 -9.33726
lfingers 7.12502
lthumb 12.8862 20.2449
rfemur -37.1277 26.7587 0.126593
rtibia 28.7111
rfoot -37.3651 -24.751
rtoes -15.1903
lfemur 24.2849 -11.262 -35.4525
ltibia 8.28061
lfoot -20.1553 -11.297
ltoes 4.06589
788
root 5.00899 16.9923 14.4516 -357.96 36.5324 364.598
lowerback 6.15435 -4.39636 -8.29613
upperback 1.79754 -6.34923 -1.76324
thorax -0.871625 -3.16569 3.18142
lowerneck 0.707004 2.79995 -5.15085
upperneck 15.4429 4.38736 -2.12411
head 4.97679 1.7989 0.357263
rclavicle 6.35117e-014 1.66979e-014
rhumerus -40.2573 -32.9096 -67.2961
rradius 12.5
rwrist 47.8633
rhand -15.4754 18.2368
rfingers 7.12502
rthumb 10.7062 -11.4704
lclavicle 6.35117e-014 1.66979e-014
lhumerus -19.0098 -6.32259 91.9521
lradius 47.7457
lwrist -4.76471
lhand -13.294 -9.68983
lfingers 7.12502
lthumb 12.8098 19.8971
rfemur -37.0861 24.677 1.17447
rtibia 28.6271
rfoot -35.4751 -23.005
rtoes -13.9996
lfemur 25.1297 -10.9645 -35.3094
ltibia 7.94761
lfoot -20.1697 -11.7739
ltoes 4.35464
789
root 5.08995 16.9566 14.6301 -357.966 36.6599 364.527
lowerback 6.26061 -4.45102 -8.08856
upperback 1.74372 -6.42381 -1.69748
thorax -0.994018 -3.19721 3.15263
lowerneck 0.348554 2.86877 -5.36449
upperneck 16.045 4.51894 -2.01818
head 4.70592 1.83851 0.440147
rclavicle -2.43014e-014 3.18055e-015
rhumerus -40.317 -33.7537 -66.4951
rradius 12.3044
rwrist 48.5625
rhand -15.7617 18.108
rfingers 7.12502
rthumb 10.43 -11.6133
lclavicle -2.43014e-014 3.18055e-015
lhumerus -18.9179 -5.7941 91.7864
lradius 47.3581
lwrist -4.84791
lhand -13.3272 -9.91436
lfingers 7.12502
lthumb 12.7778 19.6746
rfemur -36.8674 22.3919 2.49851
rtibia 28.5428
rfoot -33.2097 -20.9302
rtoes -12.6646
lfemur 25.7304 -10.6727 -35.0337
ltibia 8.02095
lfoot -20.3027 -12.2207
ltoes 4.40946
790
root 5.17517 16.9238 14.8113 -358.023 36.7317 364.412
lowerback 6.32163 -4.45509 -7.83217
upperback 1.71848 -6.42112 -1.61895
thorax -1.07416 -3.19298 3.10158
lowerneck 0.09628 2.90176 -5.58114
upperneck 16.2063 4.59193 -1.95718
head 4.79173 1.85837 0.503396
rclavicle -3.37437e-014 1.90833e-014
rhumerus -40.4431 -34.8217 -65.5362
rradius 12.1373
rwrist 49.2924
rhand -15.9582 17.8364
rfingers 7.12502
rthumb 10.2405 -11.8943
lclavicle -3.37437e-014 1.90833e-014
lhumerus -18.8637 -5.23881 91.6914
lradius 46.8268
lwrist -5.08192
lhand -13.5236 -10.1793
lfingers 7.12502
lthumb 12.5884 19.4214
rfemur -36.6627 20.5417 3.71729
rtibia 28.5826
rfoot -30.9614 -18.842
rtoes -12.1466
lfemur 26.2065 -10.3194 -34.7276
ltibia 8.37175
lfoot -20.409 -12.6593
ltoes 4.61725
791
root 5.26378 16.892 14.9963 -358.12 36.8409 364.236
lowerback 6.34689 -4.47783 -7.49219
upperback 1.67963 -6.43525 -1.53956
thorax -1.156 -3.19712 3.00421
lowerneck 0.00477716 2.93495 -5.81528
upperneck 16.2869 4.6509 -1.89321
head 4.82556 1.87456 0.56606
rclavicle -1.47598e-014 -1.47101e-014
rhumerus -40.4776 -35.3592 -64.982
rradius 12.0408
rwrist 49.2831
rhand -16.3232 17.4851
rfingers 7.12502
rthumb 9.88831 -12.2627
lclavicle -1.47598e-014 -1.47101e-014
lhumerus -18.9016 -4.48012 91.6081
lradius 46.1527
lwrist -5.42503
lhand -13.9084 -10.3971
lfingers 7.12502
lthumb 12.2174 19.226
rfemur -36.4411 18.9144 4.90344
rtibia 28.6945
rfoot -28.4907 -16.8454
rtoes -12.6286
lfemur 26.7321 -10.0086 -34.3561
ltibia 8.65621
lfoot -20.1569 -13.1233
ltoes 4.84452
792
root 5.35685 16.8621 15.1843 -358.255 36.9022 363.979
lowerback 6.2868 -4.48016 -7.06451
upperback 1.67978 -6.40679 -1.46854
thorax -1.16491 -3.18391 2.83841
lowerneck -0.0928743 2.95626 -5.94009
upperneck 16.3234 4.68623 -1.82722
head 4.84869 1.88663 0.61031
rclavicle 1.41137e-014 1.66979e-014
rhumerus -40.6301 -36.2552 -64.2504
rradius 11.9365
rwrist 49.5809
rhand -16.6232 17.1048
rfingers 7.12502
rthumb 9.59887 -12.6565
lclavicle 1.41137e-014 1.66979e-014
lhumerus -18.9541 -3.73344 91.4657
lradius 45.3929
lwrist -5.65749
lhand -14.3369 -10.4768
lfingers 7.12502
lthumb 11.8043 19.1705
rfemur -36.3343 17.6349 6.01699
rtibia 29.0295
rfoot -25.761 -14.9161
rtoes -12.925
lfemur 27.1912 -9.6594 -33.9034
ltibia 8.99674
lfoot -19.6797 -13.5614
ltoes 5.32595
793
root 5.45427 16.8359 15.3743 -358.409 37.0056 363.684
lowerback 6.2243 -4.50088 -6.58853
upperback 1.6567 -6.40109 -1.35396
thorax -1.19442 -3.18123 2.69283
lowerneck -0.116266 2.98715 -6.13029
upperneck 16.3809 4.74014 -1.80263
head 4.86573 1.90206 0.652013
rclavicle -4.57702e-014 -2.3059e-014
rhumerus -40.7722 -36.9401 -63.5571
rradius 11.8608
rwrist 49.6484
rhand -17.0157 16.8506
rfingers 7.12502
rthumb 9.22023 -12.9278
lclavicle -4.57702e-014 -2.3059e-014
lhumerus -19.0727 -2.66352 91.4376
lradius 44.4939
lwrist -6.1176
lhand -14.922 -10.5078
lfingers 7.12502
lthumb 11.24 19.1711
rfemur -36.3055 16.3347 7.12793
rtibia 29.6015
rfoot -22.8171 -12.8549
rtoes -12.6576
lfemur 27.6354 -9.35799 -33.4076
ltibia 9.36227
lfoot -19.206 -14.0101
ltoes 5.59909
794
root 5.55382 16.8098 15.5661 -358.614 37.1107 363.371
lowerback 6.14638 -4.50194 -6.08347
upperback 1.6389 -6.36689 -1.26616
thorax -1.2185 -3.1646 2.50072
lowerneck 0.154652 2.99685 -6.19592
upperneck 16.2551 4.73589 -1.8443
head 4.78185 1.90134 0.642855
rclavicle -5.62064e-014 -1.03368e-014
rhumerus -40.9784 -37.4806 -62.9754
rradius 11.8307
rwrist 49.2395
rhand -17.3191 16.6914
rfingers 7.12502
rthumb 8.92738 -13.0997
lclavicle -5.62064e-014 -1.03368e-014
lhumerus -19.2337 -1.52403 91.4
lradius 43.4166
lwrist -6.58252
lhand -15.5714 -10.5216
lfingers 7.12502
lthumb 10.6136 19.1904
rfemur -36.2954 15.2475 8.15619
rtibia 30.3503
rfoot -20.0219 -10.85
rtoes -12.2
lfemur 27.981 -9.06343 -32.8748
ltibia 9.97494
lfoot -18.6362 -14.5348
ltoes 6.09971
795
root 5.65741 16.7868 15.7624 -358.856 37.1815 362.988
lowerback 5.9547 -4.48084 -5.54645
upperback 1.65856 -6.29228 -1.15794
thorax -1.14437 -3.13157 2.29711
lowerneck 0.410155 2.99618 -6.21485
upperneck 16.1646 4.71656 -1.87404
head 4.71227 1.89547 0.630044
rclavicle 1.54058e-014 -3.06128e-014
rhumerus -41.222 -38.1784 -62.3022
rradius 11.7871
rwrist 48.8352
rhand -17.5731 16.6474
rfingers 7.12502
rthumb 8.68229 -13.154
lclavicle 1.54058e-014 -3.06128e-014
lhumerus -19.3758 -0.440847 91.3394
lradius 42.2175
lwrist -6.91577
lhand -16.2344 -10.394
lfingers 7.12502
lthumb 9.97405 19.3497
rfemur -36.3312 14.2814 9.17575
rtibia 31.2039
rfoot -17.4475 -9.02482
rtoes -11.3095
lfemur 28.0733 -8.73857 -32.2802
ltibia 10.9804
lfoot -18.0017 -15.0688
ltoes 6.70322
796
root 5.762 16.7673 15.9573 -359.126 37.3187 362.587
lowerback 5.80584 -4.46439 -4.98206
upperback 1.67882 -6.22719 -1.03599
thorax -1.09308 -3.10214 2.0967
lowerneck 0.722068 2.96854 -6.18171
upperneck 15.6286 4.65822 -2.01004
head 5.01888 1.87849 0.587442
rclavicle -7.59854e-014 -5.1684e-015
rhumerus -41.2551 -38.3246 -62.0474
rradius 11.8358
rwrist 47.7166
rhand -17.7721 16.5949
rfingers 7.12502
rthumb 8.49029 -13.2145
lclavicle -7.59854e-014 -5.1684e-015
lhumerus -19.4767 0.799647 91.3253
lradius 40.8143
lwrist -7.26843
lhand -16.797 -10.315
lfingers 7.12502
lthumb 9.43124 19.454
rfemur -36.3239 13.4774 10.0951
rtibia 32.107
rfoot -15.3254 -7.48779
rtoes -10.6882
lfemur 27.8419 -7.99421 -31.4111
ltibia 12.4174
lfoot -17.3079 -15.9904
ltoes 7.10542
797
root 5.86963 16.7512 16.1538 -359.388 37.4099 362.189
lowerback 5.64303 -4.41938 -4.38467
upperback 1.68444 -6.12474 -0.951833
thorax -1.05821 -3.05283 1.83731
lowerneck 0.930616 2.92714 -6.02652
upperneck 15.6037 4.60024 -2.15431
head 4.97605 1.85586 0.504126
rclavicle 4.57702e-014 3.97569e-015
rhumerus -41.4701 -38.6955 -61.599
rradius 11.8568
rwrist 46.8011
rhand -17.9142 16.6567
rfingers 7.12502
rthumb 8.35314 -13.1581
lclavicle 4.57702e-014 3.97569e-015
lhumerus -19.6198 2.09971 91.2455
lradius 39.2923
lwrist -7.74035
lhand -17.2565 -10.1931
lfingers 7.12502
lthumb 8.98783 19.5954
rfemur -36.2928 12.9169 10.8871
rtibia 33.0023
rfoot -13.5149 -6.21689
rtoes -10.2464
lfemur 27.2884 -7.21785 -30.57
ltibia 14.3487
lfoot -16.6127 -16.6865
ltoes 7.22207
798
root 5.97769 16.7393 16.3503 -359.719 37.5331 361.744
lowerback 5.52729 -4.39424 -3.8046
upperback 1.70541 -6.05286 -0.829423
thorax -1.02418 -3.01867 1.63079
lowerneck 1.04974 2.90111 -5.92745
upperneck 15.5972 4.56794 -2.25934
head 4.95541 1.84293 0.447281
rclavicle -2.39039e-014 1.39149e-014
rhumerus -41.5299 -38.7658 -61.3983
rradius 11.9335
rwrist 45.4862
rhand -17.9945 16.8088
rfingers 7.12502
rthumb 8.27564 -13.0091
lclavicle -2.39039e-014 1.39149e-014
lhumerus -19.6675 3.65401 91.175
lradius 37.5814
lwrist -8.29734
lhand -17.6382 -10.0295
lfingers 7.12502
lthumb 8.61952 19.7745
rfemur -36.1382 12.5568 11.6051
rtibia 33.8675
rfoot -12.1679 -5.11981
rtoes -10.6297
lfemur 26.5065 -6.39121 -29.639
ltibia 16.6975
lfoot -15.8015 -17.3151
ltoes 7.24232
